<svg width="20" height="18" viewBox="0 0 20 18" fill="none" xmlns="http://www.w3.org/2000/svg">
<g clip-path="url(#clip0_2127_18)">
<path opacity="0.12" d="M2.5 7.92389C2.5 7.49309 2.5 7.27769 2.56167 7.07939C2.61631 6.90368 2.70611 6.73843 2.82667 6.59174C2.96275 6.42614 3.15167 6.29391 3.5295 6.02939L9.18142 2.07306C9.47417 1.86816 9.62058 1.76564 9.78225 1.72626C9.92485 1.69151 10.0752 1.69151 10.2178 1.72626C10.3794 1.76564 10.5258 1.86809 10.8186 2.07306L16.4705 6.02939C16.8483 6.29391 17.0372 6.42614 17.1733 6.59174C17.2938 6.73836 17.3837 6.90366 17.4383 7.07939C17.5 7.27769 17.5 7.49309 17.5 7.92389V13.3501C17.5 14.1901 17.5 14.6101 17.3183 14.9311C17.1586 15.2133 16.9036 15.4428 16.59 15.5866C16.2335 15.7501 15.7667 15.7501 14.8333 15.7501H5.16667C4.23325 15.7501 3.7665 15.7501 3.41 15.5866C3.0964 15.4428 2.84144 15.2133 2.68167 14.9311C2.5 14.6101 2.5 14.1901 2.5 13.3501V7.92389Z" fill="white"/>
<path d="M6.77167 10.5001C7.14167 11.794 8.44683 12.7501 10 12.7501C11.5532 12.7501 12.8582 11.794 13.2283 10.5001M9.18142 2.07306L3.5295 6.02939C3.15167 6.29391 2.96283 6.42614 2.82667 6.59174C2.70611 6.73843 2.61631 6.90368 2.56167 7.07939C2.5 7.27769 2.5 7.49309 2.5 7.92381V13.3501C2.5 14.1901 2.5 14.6101 2.68167 14.9311C2.84142 15.2133 3.09642 15.4428 3.41 15.5866C3.7665 15.7501 4.23333 15.7501 5.16667 15.7501H14.8333C15.7667 15.7501 16.2335 15.7501 16.59 15.5866C16.9036 15.4428 17.1586 15.2133 17.3183 14.9311C17.5 14.6101 17.5 14.1901 17.5 13.3501V7.92389C17.5 7.49309 17.5 7.27769 17.4383 7.07939C17.3837 6.9037 17.2939 6.73844 17.1733 6.59174C17.0372 6.42614 16.8483 6.29391 16.4705 6.02939L10.8186 2.07306C10.5258 1.86816 10.3794 1.76564 10.2177 1.72626C10.0752 1.69151 9.92485 1.69151 9.78225 1.72626C9.62058 1.76564 9.47417 1.86809 9.18142 2.07306Z" stroke="white" stroke-width="1.66667" stroke-linecap="round" stroke-linejoin="round"/>
</g>
<defs>
<clipPath id="clip0_2127_18">
<rect width="20" height="18" fill="white"/>
</clipPath>
</defs>
</svg>
