<svg width="16" height="19" viewBox="0 0 16 19" fill="none" xmlns="http://www.w3.org/2000/svg">
<path d="M1 5.35643C1 3.9949 1 3.31421 1.2725 2.79414C1.51218 2.33673 1.89462 1.96485 2.365 1.73178C2.89983 1.4668 3.59983 1.4668 5 1.4668H10.3333C11.7335 1.4668 12.4335 1.4668 12.9683 1.73178C13.4387 1.96483 13.8212 2.33672 14.0608 2.79414C14.3333 3.31421 14.3333 3.9949 14.3333 5.35643V13.784C14.3333 15.1455 14.3333 15.8262 14.0608 16.3463C13.8212 16.8037 13.4387 17.1756 12.9683 17.4086C12.4335 17.6736 11.7335 17.6736 10.3333 17.6736H5C3.59983 17.6736 2.89983 17.6736 2.365 17.4086C1.89461 17.1756 1.51217 16.8037 1.2725 16.3463C1 15.8262 1 15.1455 1 13.784V5.35643Z" stroke="white" stroke-width="1.66667" stroke-linecap="round" stroke-linejoin="round"/>
</svg>
