<svg width="20" height="18" viewBox="0 0 20 18" fill="none" xmlns="http://www.w3.org/2000/svg">
<g clip-path="url(#clip0_2127_54)">
<path opacity="0.12" d="M7.5 2.25H6.5C5.09983 2.25 4.39983 2.25 3.865 2.49525C3.39462 2.71096 3.01218 3.05515 2.7725 3.4785C2.5 3.95985 2.5 4.58985 2.5 5.85V12.15C2.5 13.4102 2.5 14.0401 2.7725 14.5215C3.01217 14.9449 3.39461 15.2891 3.865 15.5048C4.39983 15.75 5.09983 15.75 6.5 15.75H7.5V2.25Z" fill="white"/>
<path d="M14.5833 8.25H10.4167M14.5833 11.25H10.4167M14.5833 5.25H10.4167M7.5 2.25V15.75M6.5 2.25H13.5C14.9002 2.25 15.6002 2.25 16.135 2.49525C16.6054 2.71095 16.9878 3.05515 17.2275 3.4785C17.5 3.95985 17.5 4.58985 17.5 5.85V12.15C17.5 13.4102 17.5 14.0401 17.2275 14.5215C16.9878 14.9449 16.6054 15.2891 16.135 15.5048C15.6002 15.75 14.9002 15.75 13.5 15.75H6.5C5.09983 15.75 4.39983 15.75 3.865 15.5048C3.39461 15.2891 3.01217 14.9449 2.7725 14.5215C2.5 14.0401 2.5 13.4102 2.5 12.15V5.85C2.5 4.58985 2.5 3.95985 2.7725 3.4785C3.01218 3.05515 3.39462 2.71096 3.865 2.49525C4.39983 2.25 5.09983 2.25 6.5 2.25Z" stroke="white" stroke-width="1.66667" stroke-linecap="round" stroke-linejoin="round"/>
</g>
<defs>
<clipPath id="clip0_2127_54">
<rect width="20" height="18" fill="white"/>
</clipPath>
</defs>
</svg>
