<svg width="20" height="18" viewBox="0 0 20 18" fill="none" xmlns="http://www.w3.org/2000/svg">
<g clip-path="url(#clip0_2127_64)">
<path opacity="0.12" d="M2.5 6.6C2.5 5.33985 2.5 4.70985 2.7725 4.2285C3.01218 3.80515 3.39462 3.46096 3.865 3.24525C4.39983 3 5.09983 3 6.5 3H13.5C14.9002 3 15.6002 3 16.135 3.24525C16.6054 3.46095 16.9878 3.80515 17.2275 4.2285C17.5 4.70985 17.5 5.33985 17.5 6.6V7.5H2.5V6.6Z" fill="white"/>
<path d="M17.5 7.5H2.5M13.3333 1.5V4.5M6.66667 1.5V4.5M6.5 16.5H13.5C14.9002 16.5 15.6002 16.5 16.135 16.2548C16.6054 16.0391 16.9878 15.6949 17.2275 15.2715C17.5 14.7901 17.5 14.1602 17.5 12.9V6.6C17.5 5.33985 17.5 4.70985 17.2275 4.2285C16.9878 3.80515 16.6054 3.46095 16.135 3.24525C15.6002 3 14.9002 3 13.5 3H6.5C5.09983 3 4.39983 3 3.865 3.24525C3.39462 3.46096 3.01218 3.80515 2.7725 4.2285C2.5 4.70985 2.5 5.33985 2.5 6.6V12.9C2.5 14.1602 2.5 14.7901 2.7725 15.2715C3.01217 15.6949 3.39461 16.0391 3.865 16.2548C4.39983 16.5 5.09983 16.5 6.5 16.5Z" stroke="white" stroke-width="1.66667" stroke-linecap="round" stroke-linejoin="round"/>
</g>
<defs>
<clipPath id="clip0_2127_64">
<rect width="20" height="18" fill="white"/>
</clipPath>
</defs>
</svg>
