<svg width="24" height="24" viewBox="0 0 24 24" fill="none" xmlns="http://www.w3.org/2000/svg">
<g clip-path="url(#clip0_4_12492)">
<path d="M9.74461 12.1521C11.9958 12.1521 13.8207 10.3272 13.8207 8.0761C13.8207 5.8249 11.9958 4 9.74471 4C7.49341 4 5.66851 5.825 5.66851 8.076C5.66851 10.3272 7.49351 12.1521 9.74461 12.1521ZM9.74461 14.8695C7.18061 14.8695 4.90181 16.2685 3.45771 18.4368C3.14141 18.9118 2.98321 19.1493 3.00141 19.4527C3.01561 19.6889 3.17041 19.9781 3.35921 20.1209C3.60161 20.3042 3.93501 20.3042 4.60191 20.3042H14.8874C15.5542 20.3042 15.8876 20.3042 16.13 20.1209C16.3188 19.9781 16.4736 19.6889 16.4878 19.4527C16.506 19.1493 16.3479 18.9118 16.0315 18.4368C14.5874 16.2685 12.3086 14.8695 9.74461 14.8695Z" fill="white" fill-opacity="0.01"/>
<path d="M17.4438 15.6275C18.7626 16.29 19.8932 17.3531 20.7185 18.6825C20.8819 18.9458 20.9636 19.0774 20.9919 19.2597C21.0493 19.6301 20.796 20.0855 20.451 20.2321C20.2812 20.3042 20.0902 20.3042 19.7083 20.3042M15.6322 11.7284C16.9744 11.0614 17.8967 9.6764 17.8967 8.076C17.8967 6.4756 16.9744 5.0907 15.6322 4.4237M13.8207 8.076C13.8207 10.3271 11.9958 12.152 9.74471 12.152C7.49351 12.152 5.66861 10.3271 5.66861 8.076C5.66861 5.8249 7.49351 4 9.74461 4C11.9958 4 13.8207 5.825 13.8207 8.076ZM3.45771 18.4367C4.90181 16.2684 7.18071 14.8694 9.74471 14.8694C12.3086 14.8694 14.5874 16.2684 16.0315 18.4367C16.3479 18.9117 16.506 19.1492 16.4878 19.4526C16.4736 19.6888 16.3188 19.978 16.13 20.1208C15.8876 20.3041 15.5542 20.3041 14.8874 20.3041H4.60191C3.93501 20.3041 3.60161 20.3041 3.35921 20.1208C3.17051 19.978 3.01561 19.6888 3.00141 19.4526C2.98321 19.1492 3.14131 18.9117 3.45771 18.4367Z" stroke="#0B5D51" stroke-width="2" stroke-linecap="round" stroke-linejoin="round"/>
</g>
<defs>
<clipPath id="clip0_4_12492">
<rect width="24" height="24" fill="white"/>
</clipPath>
</defs>
</svg>
