<svg width="20" height="19" viewBox="0 0 20 19" fill="none" xmlns="http://www.w3.org/2000/svg">
<g clip-path="url(#clip0_2127_23)">
<path opacity="0.12" d="M7.916 9.31006C9.98708 9.31006 11.666 7.79903 11.666 5.93506C11.666 4.07108 9.98708 2.56006 7.916 2.56006C5.84491 2.56006 4.166 4.07108 4.166 5.93506C4.166 7.79903 5.845 9.31006 7.916 9.31006ZM7.916 11.5601C5.55716 11.5601 3.46066 12.7185 2.13208 14.5138C1.841 14.9072 1.69542 15.1038 1.71225 15.355C1.72525 15.5506 1.86775 15.7901 2.04142 15.9083C2.26441 16.0601 2.57117 16.0601 3.18467 16.0601H12.6474C13.2609 16.0601 13.5677 16.0601 13.7907 15.9083C13.9643 15.7901 14.1067 15.5506 14.1198 15.355C14.1366 15.1038 13.9911 14.9072 13.7 14.5138C12.3714 12.7185 10.2749 11.5601 7.916 11.5601Z" fill="white"/>
<path d="M14.9994 12.1877C16.2126 12.7363 17.2529 13.6166 18.0121 14.7173C18.1625 14.9353 18.2376 15.0443 18.2636 15.1952C18.3165 15.5019 18.0834 15.8789 17.7661 16.0004C17.6098 16.0601 17.4341 16.0601 17.0827 16.0601M13.3327 8.95921C14.5676 8.40698 15.4161 7.26023 15.4161 5.93506C15.4161 4.60988 14.5676 3.46313 13.3327 2.91091M11.6661 5.93506C11.6661 7.79903 9.98714 9.31006 7.91606 9.31006C5.84497 9.31006 4.16606 7.79903 4.16606 5.93506C4.16606 4.07108 5.84506 2.56006 7.91606 2.56006C9.98714 2.56006 11.6661 4.07108 11.6661 5.93506ZM2.13214 14.5138C3.46072 12.7185 5.55722 11.5601 7.91606 11.5601C10.275 11.5601 12.3715 12.7185 13.7001 14.5138C13.9911 14.9072 14.1366 15.1038 14.1199 15.355C14.1068 15.5506 13.9644 15.7901 13.7907 15.9083C13.5677 16.0601 13.261 16.0601 12.6475 16.0601H3.18472C2.57122 16.0601 2.26447 16.0601 2.04139 15.9083C1.86781 15.7901 1.72531 15.5506 1.71222 15.355C1.69556 15.1038 1.84106 14.9072 2.13214 14.5138Z" stroke="white" stroke-width="1.66667" stroke-linecap="round" stroke-linejoin="round"/>
</g>
<defs>
<clipPath id="clip0_2127_23">
<rect width="20" height="18" fill="white" transform="translate(0 0.310059)"/>
</clipPath>
</defs>
</svg>
