<svg width="20" height="18" viewBox="0 0 20 18" fill="none" xmlns="http://www.w3.org/2000/svg">
<g clip-path="url(#clip0_2127_59)">
<path opacity="0.12" d="M10.0013 16.5C14.6036 16.5 18.3346 13.1421 18.3346 9C18.3346 4.85782 14.6036 1.5 10.0013 1.5C5.39889 1.5 1.66797 4.85782 1.66797 9C1.66797 13.1421 5.39889 16.5 10.0013 16.5Z" fill="white"/>
<path d="M13.3346 9L10.0013 6M10.0013 6L6.66797 9M10.0013 6V12.9C10.0013 13.943 10.0013 14.4646 10.4601 15.0484C10.7649 15.4364 11.6425 15.9152 12.1656 15.9791C12.9531 16.0751 13.2521 15.9347 13.8501 15.6539C16.5152 14.4027 18.3346 11.8926 18.3346 9C18.3346 4.85782 14.6036 1.5 10.0013 1.5C5.39889 1.5 1.66797 4.85782 1.66797 9C1.66797 11.7761 3.3438 14.1998 5.83464 15.4967" stroke="white" stroke-width="1.66667" stroke-linecap="round" stroke-linejoin="round"/>
</g>
<defs>
<clipPath id="clip0_2127_59">
<rect width="20" height="18" fill="white"/>
</clipPath>
</defs>
</svg>
