<svg width="36" height="37" viewBox="0 0 36 37" fill="none" xmlns="http://www.w3.org/2000/svg">
<g clip-path="url(#clip0_4_12340)">
<g clip-path="url(#clip1_4_12340)">
<path d="M0 9.30029H9L9.37125 9.67154H26.6287L27 9.30029H36V27.3003H27L26.6287 26.929H9.37125L9 27.3003H0V9.30029Z" fill="#D52B1E"/>
<path d="M9 9.30029H27V27.3003H9V9.30029ZM18.3375 25.9128L18.1687 22.6765C18.1663 22.6233 18.1758 22.5702 18.1966 22.5212C18.2174 22.4721 18.2489 22.4283 18.2888 22.3931C18.3288 22.3578 18.3761 22.332 18.4274 22.3174C18.4786 22.3029 18.5325 22.3 18.585 22.309L21.8062 22.8753L21.3712 21.6753C21.3536 21.6276 21.3513 21.5755 21.3648 21.5264C21.3782 21.4773 21.4067 21.4336 21.4462 21.4015L24.975 18.544L24.18 18.1728C24.1263 18.1474 24.0837 18.1033 24.0602 18.0488C24.0368 17.9942 24.034 17.933 24.0525 17.8765L24.75 15.7315L22.7175 16.1628C22.6624 16.1743 22.6051 16.1664 22.5552 16.1404C22.5053 16.1144 22.4659 16.072 22.4437 16.0203L22.05 15.094L20.4637 16.7965C20.4275 16.8348 20.3798 16.8603 20.3278 16.8691C20.2758 16.878 20.2224 16.8698 20.1755 16.8457C20.1286 16.8216 20.0908 16.783 20.0677 16.7356C20.0446 16.6882 20.0375 16.6346 20.0475 16.5828L20.8125 12.6378L19.5862 13.3465C19.5575 13.3634 19.5255 13.3742 19.4924 13.3782C19.4593 13.3823 19.4257 13.3794 19.3937 13.3699C19.3617 13.3604 19.332 13.3445 19.3064 13.323C19.2808 13.3016 19.2599 13.2751 19.245 13.2453L18 10.8003L16.755 13.2453C16.7401 13.2751 16.7192 13.3016 16.6936 13.323C16.668 13.3445 16.6383 13.3604 16.6063 13.3699C16.5743 13.3794 16.5407 13.3823 16.5076 13.3782C16.4745 13.3742 16.4425 13.3634 16.4137 13.3465L15.1875 12.6378L15.9525 16.5828C15.9625 16.6346 15.9554 16.6882 15.9323 16.7356C15.9092 16.783 15.8714 16.8216 15.8245 16.8457C15.7776 16.8698 15.7242 16.878 15.6722 16.8691C15.6202 16.8603 15.5725 16.8348 15.5362 16.7965L13.95 15.094L13.5562 16.0203C13.5341 16.072 13.4947 16.1144 13.4448 16.1404C13.3949 16.1664 13.3376 16.1743 13.2825 16.1628L11.25 15.7315L11.9475 17.8765C11.966 17.933 11.9632 17.9942 11.9398 18.0488C11.9163 18.1033 11.8737 18.1474 11.82 18.1728L11.025 18.544L14.5537 21.4015C14.5933 21.4336 14.6218 21.4773 14.6352 21.5264C14.6487 21.5755 14.6464 21.6276 14.6287 21.6753L14.1937 22.8753L17.415 22.309C17.4675 22.3 17.5214 22.3029 17.5726 22.3174C17.6239 22.332 17.6712 22.3578 17.7112 22.3931C17.7511 22.4283 17.7826 22.4721 17.8034 22.5212C17.8242 22.5702 17.8337 22.6233 17.8312 22.6765L17.6625 25.9128H18.3375Z" fill="white"/>
</g>
</g>
<defs>
<clipPath id="clip0_4_12340">
<rect width="36" height="36" fill="white" transform="translate(0 0.300293)"/>
</clipPath>
<clipPath id="clip1_4_12340">
<rect width="36" height="36" fill="white" transform="translate(0 0.300293)"/>
</clipPath>
</defs>
</svg>
