<svg width="49" height="49" viewBox="0 0 49 49" fill="none" xmlns="http://www.w3.org/2000/svg">
<path d="M44.3786 27.5041C44.3951 28.81 43.8865 30.0499 42.9665 30.9777C42.9646 30.9796 42.9627 30.9816 42.9608 30.9836C42.9534 30.9918 42.949 30.996 42.9417 31.0028C42.936 31.0083 42.9285 31.0154 42.9163 31.0275L41.7008 32.234C41.1825 32.7484 40.8861 33.4469 40.8861 34.1841V35.9328C40.8861 38.6387 38.6687 40.8413 35.9425 40.8413H34.1791C33.4385 40.8413 32.7347 41.1336 32.2162 41.6482L30.9836 42.8717C30.0148 43.835 28.7508 44.3063 27.4852 44.3063C26.2196 44.3063 24.9552 43.835 23.9862 42.8899L22.7371 41.6484C22.2185 41.1336 21.5147 40.8413 20.774 40.8413H19.0107C16.2845 40.8413 14.0671 38.6387 14.0671 35.9328V34.1841C14.0671 33.4463 13.7703 32.7494 13.255 32.2196L13.2514 32.216L12.0197 31.0104C10.098 29.1042 10.0819 25.9886 12.0031 24.067L12.6573 23.4367L12.711 23.3818C13.2473 22.8198 14.2661 21.3812 14.2661 20.6518V18.9119C14.2661 16.1959 16.4828 13.9881 19.2085 13.9881H20.9714C21.7126 13.9881 22.416 13.6908 22.9338 13.1748L24.1668 11.9461C26.0871 10.0176 29.2236 10.0166 31.162 11.9319L32.4109 13.1748C32.9287 13.6908 33.6321 13.9881 34.3733 13.9881H36.1363C38.862 13.9881 41.0787 16.1959 41.0787 18.9119V20.6705C41.0787 21.4072 41.3751 22.1084 41.8932 22.6246L43.1268 23.8541C44.0614 24.7655 44.3786 26.1989 44.3786 27.5041Z" fill="#FFCBB9" fill-opacity="0.35" stroke="url(#paint0_linear_4_5702)" stroke-width="0.417391" stroke-linecap="round" stroke-linejoin="round"/>
<path d="M35.1961 14.0152V13.2326C35.1961 10.4158 32.9049 8.12672 30.0875 8.12672H28.3393C27.6604 8.12672 27.0155 7.85353 26.5402 7.37841L25.3013 6.14139C23.2985 4.15606 20.0568 4.15606 18.0711 6.15666L16.849 7.37841C16.3738 7.85353 15.7289 8.12672 15.05 8.12672H13.3019C10.4844 8.12672 8.19318 10.4158 8.19318 13.2326V14.9634C8.19318 15.6591 7.92163 16.3039 7.4464 16.7791L6.20743 18.0195C4.22166 20.02 4.23864 23.2628 6.22439 25.2464L7.4464 26.4512C7.92163 26.9433 8.19318 27.5881 8.19318 28.2685V30.0146C8.19318 32.8314 10.4844 35.1239 13.3019 35.1239H14.0791V34.1569C14.0791 33.4765 13.8076 32.8317 13.3324 32.3396L12.1103 31.1348C10.1246 29.1512 10.1076 25.9085 12.0934 23.9079L13.3324 22.6675C13.8076 22.1923 14.0791 21.5476 14.0791 20.8518V19.121C14.0791 16.3042 16.3704 14.0152 19.1878 14.0152H20.936C21.6148 14.0152 22.2598 13.7419 22.735 13.2668L23.957 12.0451C25.9428 10.0445 29.1845 10.0445 31.1872 12.0298L32.4262 13.2668C32.9014 13.7419 33.5464 14.0152 34.2252 14.0152H35.1961Z" fill="url(#paint1_linear_4_5702)"/>
<g opacity="0.5">
<g filter="url(#filter0_f_4_5702)">
<path d="M35.8274 16.717L37.0459 17.9355C38.0105 18.8831 38.5351 20.1693 38.5351 21.5231C38.5521 22.8769 38.0275 24.1647 37.0798 25.1276C37.0684 25.14 37.0572 25.1509 37.0459 25.1618C37.0402 25.1673 37.0346 25.1727 37.029 25.1784L35.8274 26.3799C35.3536 26.8537 35.0828 27.4968 35.0828 28.1754V29.9168C35.0828 32.726 32.7982 35.0122 29.9889 35.0122H28.2458C27.5689 35.0122 26.9258 35.2813 26.452 35.7551L25.2335 36.9736C24.235 37.9737 22.9319 38.4628 21.6289 38.4628C20.3258 38.4628 19.0227 37.9737 18.0242 36.9922L16.7888 35.7551C16.315 35.2813 15.6719 35.0122 14.9949 35.0122H14.0269V34.0479C14.0269 33.3693 13.7561 32.7262 13.2823 32.2355L12.0638 31.034C10.0838 29.0557 10.0669 25.8217 12.0469 23.8266L13.2823 22.5895C13.7561 22.1157 14.0269 21.4726 14.0269 20.7788V19.0526C14.0269 16.2435 16.3115 13.9606 19.1208 13.9606H20.8639C21.5408 13.9606 22.1839 13.6881 22.6578 13.2143L23.8762 11.9958C25.8562 10.0007 29.0886 10.0007 31.0855 11.9806L32.3209 13.2143C32.7947 13.6881 33.4378 13.9606 34.1147 13.9606H35.0828V14.9249C35.0828 15.6001 35.3536 16.2431 35.8274 16.717Z" fill="url(#paint2_linear_4_5702)"/>
</g>
</g>
<path fill-rule="evenodd" clip-rule="evenodd" d="M24.3624 33.0138C24.0906 33.302 23.7169 33.4545 23.3092 33.4545C22.9185 33.4545 22.5448 33.302 22.273 33.0138C21.6955 32.4374 21.6955 31.4881 22.273 30.9118L31.0043 22.1986C31.5818 21.6239 32.5161 21.6239 33.0936 22.1986C33.6712 22.775 33.6712 23.7259 33.0936 24.3023L24.3624 33.0138ZM32.0743 33.4545C31.2562 33.4545 30.6051 32.8034 30.6051 31.9853C30.6051 31.1856 31.2562 30.5328 32.0743 30.5328C32.8757 30.5328 33.5268 31.1856 33.5268 31.9853C33.5268 32.8034 32.8757 33.4545 32.0743 33.4545ZM24.7616 23.2201C24.7616 22.4187 24.1105 21.7676 23.3091 21.7676C22.5077 21.7676 21.8398 22.4187 21.8398 23.2201C21.8398 24.0398 22.5077 24.6893 23.3091 24.6893C24.1105 24.6893 24.7616 24.0398 24.7616 23.2201Z" fill="url(#paint3_linear_4_5702)"/>
<mask id="mask0_4_5702" style="mask-type:luminance" maskUnits="userSpaceOnUse" x="21" y="21" width="13" height="13">
<path d="M24.3624 33.0138C24.0906 33.302 23.7169 33.4545 23.3092 33.4545C22.9185 33.4545 22.5448 33.302 22.273 33.0138C21.6955 32.4374 21.6955 31.4881 22.273 30.9118L31.0043 22.1986C31.5818 21.6239 32.5161 21.6239 33.0936 22.1986C33.6712 22.775 33.6712 23.7259 33.0936 24.3023L24.3624 33.0138ZM32.0743 33.4545C31.2562 33.4545 30.6051 32.8034 30.6051 31.9853C30.6051 31.1856 31.2562 30.5328 32.0743 30.5328C32.8757 30.5328 33.5268 31.1856 33.5268 31.9853C33.5268 32.8034 32.8757 33.4545 32.0743 33.4545ZM24.7616 23.2201C24.7616 22.4187 24.1105 21.7676 23.3091 21.7676C22.5077 21.7676 21.8398 22.4187 21.8398 23.2201C21.8398 24.0398 22.5077 24.6893 23.3091 24.6893C24.1105 24.6893 24.7616 24.0398 24.7616 23.2201Z" fill="white"/>
</mask>
<g mask="url(#mask0_4_5702)">
<path d="M24.6137 33.3049L24.4956 33.1868L24.4921 33.1905L24.6137 33.3049ZM22.4051 33.3049L22.5267 33.1904L22.5232 33.1868L22.4051 33.3049ZM23.5094 33.8719C23.9896 33.8719 24.4359 33.6762 24.7616 33.3018L24.5021 33.0371C24.2484 33.3289 23.8982 33.4859 23.5094 33.4859V33.8719ZM22.2572 33.3018C22.5869 33.6754 23.0394 33.8719 23.5094 33.8719V33.4859C23.1345 33.4859 22.7787 33.3298 22.5206 33.0371L22.2572 33.3018ZM22.4 30.9502C21.6531 31.6373 21.6531 32.7674 22.4 33.4545L22.6746 33.2015C22.0796 32.6541 22.0796 31.7506 22.6746 31.2031L22.4 30.9502ZM31.1978 22.185L22.2572 31.1253L22.4993 31.3676L31.4398 22.4273L31.1978 22.185ZM33.5268 22.3267C32.8345 21.5812 31.7147 21.5812 31.0225 22.3267L31.2767 22.6024C31.8284 22.0082 32.7208 22.0082 33.2725 22.6024L33.5268 22.3267ZM33.3841 24.6893C34.1309 24.0027 34.1309 22.8716 33.3841 22.185L33.1094 22.4377C33.7044 22.9848 33.7044 23.8895 33.1094 24.4365L33.3841 24.6893ZM24.5863 33.4545L33.5268 24.5143L33.2847 24.2719L24.3442 33.2121L24.5863 33.4545ZM30.6051 32.2024C30.6051 33.1313 31.3458 33.8719 32.2746 33.8719V33.5358C31.5312 33.5358 30.941 32.9455 30.941 32.2024H30.6051ZM32.2746 30.5328C31.3469 30.5328 30.6051 31.2816 30.6051 32.2024H30.941C30.941 31.4716 31.5301 30.8724 32.2746 30.8724V30.5328ZM33.9442 32.2024C33.9442 31.2829 33.1959 30.5328 32.2746 30.5328V30.8724C33.0083 30.8724 33.6048 31.4703 33.6048 32.2024H33.9442ZM32.2746 33.8719C33.197 33.8719 33.9442 33.1301 33.9442 32.2024H33.6048C33.6048 32.9468 33.0072 33.5358 32.2746 33.5358V33.8719ZM23.5094 22.1071C24.2433 22.1071 24.8395 22.7035 24.8395 23.4371H25.179C25.179 22.5158 24.4306 21.7676 23.5094 21.7676V22.1071ZM22.1758 23.4371C22.1758 22.706 22.7806 22.1071 23.5094 22.1071V21.7676C22.6001 21.7676 21.8398 22.5133 21.8398 23.4371H22.1758ZM23.5094 24.7706C22.7817 24.7706 22.1758 24.1807 22.1758 23.4371H21.8398C21.8398 24.3691 22.599 25.1067 23.5094 25.1067V24.7706ZM24.8395 23.4371C24.8395 24.1832 24.2421 24.7706 23.5094 24.7706V25.1067C24.4317 25.1067 25.179 24.3667 25.179 23.4371H24.8395Z" fill="url(#paint4_linear_4_5702)"/>
</g>
<defs>
<filter id="filter0_f_4_5702" x="3.89205" y="3.8193" width="41.3214" height="41.3219" filterUnits="userSpaceOnUse" color-interpolation-filters="sRGB">
<feFlood flood-opacity="0" result="BackgroundImageFix"/>
<feBlend mode="normal" in="SourceGraphic" in2="BackgroundImageFix" result="shape"/>
<feGaussianBlur stdDeviation="3.33913" result="effect1_foregroundBlur_4_5702"/>
</filter>
<linearGradient id="paint0_linear_4_5702" x1="-20.3679" y1="-33.7379" x2="2714.83" y2="3094.83" gradientUnits="userSpaceOnUse">
<stop stop-color="white" stop-opacity="0.4"/>
<stop offset="1" stop-color="white" stop-opacity="0"/>
</linearGradient>
<linearGradient id="paint1_linear_4_5702" x1="1701.34" y1="4.65448" x2="1701.34" y2="3397.6" gradientUnits="userSpaceOnUse">
<stop stop-color="#FFB37F"/>
<stop offset="1" stop-color="#FF7B0D"/>
</linearGradient>
<linearGradient id="paint2_linear_4_5702" x1="1408.83" y1="10.4955" x2="1408.83" y2="2807.02" gradientUnits="userSpaceOnUse">
<stop stop-color="#FFB37F"/>
<stop offset="1" stop-color="#FF7B0D"/>
</linearGradient>
<linearGradient id="paint3_linear_4_5702" x1="1107.52" y1="232.813" x2="-194.109" y2="275.245" gradientUnits="userSpaceOnUse">
<stop stop-color="white"/>
<stop offset="1" stop-color="white" stop-opacity="0.2"/>
</linearGradient>
<linearGradient id="paint4_linear_4_5702" x1="225.98" y1="175.678" x2="976.663" y2="1105.41" gradientUnits="userSpaceOnUse">
<stop stop-color="white" stop-opacity="0.25"/>
<stop offset="1" stop-color="white" stop-opacity="0"/>
</linearGradient>
</defs>
</svg>
