<svg width="104" height="105" viewBox="0 0 104 105" fill="none" xmlns="http://www.w3.org/2000/svg">
<g filter="url(#filter0_d_2_1771)">
<rect x="30.0117" y="24.5703" width="43.99" height="43.99" rx="21.995" fill="white" shape-rendering="crispEdges"/>
<rect x="30.0117" y="24.5703" width="43.99" height="43.99" rx="21.995" fill="#0B5D51"/>
<g clip-path="url(#clip0_2_1771)">
<path d="M46.5103 55.5609C44.5781 55.5609 43.0117 53.9945 43.0117 52.0623C43.0117 50.1301 44.5781 48.5638 46.5103 48.5638C48.4425 48.5638 50.0088 50.1301 50.0088 52.0623C50.0088 53.9945 48.4425 55.5609 46.5103 55.5609ZM57.5057 44.5654C59.4379 44.5654 61.0042 42.9991 61.0042 41.0669C61.0042 39.1347 59.4379 37.5684 57.5057 37.5684C55.5735 37.5684 54.0071 39.1347 54.0071 41.0669C54.0071 42.9991 55.5735 44.5654 57.5057 44.5654Z" fill="white" fill-opacity="0.01"/>
<path d="M55.0572 43.5659H45.5107C44.1306 43.5659 43.0117 42.447 43.0117 41.0669C43.0117 39.6868 44.1306 38.5679 45.5107 38.5679H55.0572M48.9587 54.5613H58.5053C59.8854 54.5613 61.0042 53.4424 61.0042 52.0623C61.0042 50.6822 59.8854 49.5634 58.5053 49.5634H48.9587M43.0117 52.0623C43.0117 53.9945 44.5781 55.5609 46.5103 55.5609C48.4425 55.5609 50.0088 53.9945 50.0088 52.0623C50.0088 50.1301 48.4425 48.5638 46.5103 48.5638C44.5781 48.5638 43.0117 50.1301 43.0117 52.0623ZM61.0042 41.0669C61.0042 42.9991 59.4379 44.5654 57.5057 44.5654C55.5735 44.5654 54.0071 42.9991 54.0071 41.0669C54.0071 39.1347 55.5735 37.5684 57.5057 37.5684C59.4379 37.5684 61.0042 39.1347 61.0042 41.0669Z" stroke="white" stroke-width="1.99943" stroke-linecap="round" stroke-linejoin="round"/>
</g>
</g>
<defs>
<filter id="filter0_d_2_1771" x="0.0117188" y="0.570312" width="103.988" height="103.99" filterUnits="userSpaceOnUse" color-interpolation-filters="sRGB">
<feFlood flood-opacity="0" result="BackgroundImageFix"/>
<feColorMatrix in="SourceAlpha" type="matrix" values="0 0 0 0 0 0 0 0 0 0 0 0 0 0 0 0 0 0 127 0" result="hardAlpha"/>
<feOffset dy="6"/>
<feGaussianBlur stdDeviation="15"/>
<feComposite in2="hardAlpha" operator="out"/>
<feColorMatrix type="matrix" values="0 0 0 0 0 0 0 0 0 0 0 0 0 0 0 0 0 0 0.08 0"/>
<feBlend mode="normal" in2="BackgroundImageFix" result="effect1_dropShadow_2_1771"/>
<feBlend mode="normal" in="SourceGraphic" in2="effect1_dropShadow_2_1771" result="shape"/>
</filter>
<clipPath id="clip0_2_1771">
<rect width="23.99" height="23.99" fill="white" transform="translate(40.0117 34.5703)"/>
</clipPath>
</defs>
</svg>
