<svg width="16" height="17" viewBox="0 0 16 17" fill="none" xmlns="http://www.w3.org/2000/svg">
<path d="M5.16667 6.98938L6.83333 8.58551L10.5833 4.99422M14.3333 15.369V4.83461C14.3333 3.4937 14.3333 2.82333 14.0608 2.31113C13.8212 1.86065 13.4387 1.49439 12.9683 1.26487C12.4335 1.00391 11.7335 1.00391 10.3333 1.00391H5C3.59983 1.00391 2.89983 1.00391 2.365 1.26487C1.89462 1.49441 1.51218 1.86066 1.2725 2.31113C1 2.82333 1 3.4937 1 4.83461V15.369L3.29167 13.7729L5.375 15.369L7.66667 13.7729L9.95833 15.369L12.0417 13.7729L14.3333 15.369Z" stroke="white" stroke-width="1.66667" stroke-linecap="round" stroke-linejoin="round"/>
</svg>
