<svg width="20" height="18" viewBox="0 0 20 18" fill="none" xmlns="http://www.w3.org/2000/svg">
<g clip-path="url(#clip0_2127_82)">
<path opacity="0.12" d="M4.33464 3H9.0013C9.93472 3 10.4015 3 10.758 3.1635C11.0716 3.30727 11.3266 3.53677 11.4863 3.819C11.668 4.13985 11.668 4.56 11.668 5.4V12.75H8.33464C8.33464 11.5073 7.21539 10.5 5.83464 10.5C4.45922 10.5 3.3433 11.4996 3.33464 12.7356C3.0078 12.7177 2.77589 12.6772 2.57797 12.5865C2.26437 12.4427 2.00941 12.2132 1.84964 11.931C1.66797 11.6101 1.66797 11.1901 1.66797 10.35V5.4C1.66797 4.55992 1.66797 4.13985 1.84964 3.819C2.00942 3.53677 2.26438 3.3073 2.57797 3.1635C2.93447 3 3.4013 3 4.33464 3Z" fill="white"/>
<path d="M11.668 5.25H13.6157C13.8195 5.25 13.9214 5.25 14.0173 5.2707C14.1023 5.28909 14.1836 5.31941 14.2582 5.36055C14.3423 5.4069 14.4144 5.47177 14.5585 5.60145L17.9441 8.64855C18.0882 8.77822 18.1603 8.8431 18.2118 8.91877C18.2575 8.98588 18.2912 9.05905 18.3116 9.1356C18.3346 9.22192 18.3346 9.31365 18.3346 9.49702V11.625C18.3346 11.9744 18.3346 12.1492 18.2712 12.287C18.1866 12.4708 18.0244 12.6168 17.8202 12.6929C17.6671 12.75 17.4729 12.75 17.0846 12.75M12.918 12.75H11.668M11.668 12.75V5.4C11.668 4.55992 11.668 4.13985 11.4863 3.819C11.3265 3.53676 11.0716 3.3073 10.758 3.1635C10.4015 3 9.93472 3 9.0013 3H4.33464C3.40122 3 2.93447 3 2.57797 3.1635C2.26438 3.3073 2.00942 3.53677 1.84964 3.819C1.66797 4.13985 1.66797 4.56 1.66797 5.4V11.25C1.66797 12.0784 2.41414 12.75 3.33464 12.75M11.668 12.75H8.33464M3.33464 12.75C3.33464 13.9927 4.45389 15 5.83464 15C7.21539 15 8.33464 13.9927 8.33464 12.75M3.33464 12.75C3.33464 11.5073 4.45389 10.5 5.83464 10.5C7.21539 10.5 8.33464 11.5073 8.33464 12.75M17.0846 13.125C17.0846 14.1605 16.1519 15 15.0013 15C13.8507 15 12.918 14.1605 12.918 13.125C12.918 12.0895 13.8507 11.25 15.0013 11.25C16.1519 11.25 17.0846 12.0895 17.0846 13.125Z" stroke="white" stroke-width="1.66667" stroke-linecap="round" stroke-linejoin="round"/>
</g>
<defs>
<clipPath id="clip0_2127_82">
<rect width="20" height="18" fill="white"/>
</clipPath>
</defs>
</svg>
