<svg width="24" height="24" viewBox="0 0 24 24" fill="none" xmlns="http://www.w3.org/2000/svg">
<g clip-path="url(#clip0_4_12485)">
<path d="M16.5268 8.4C16.5268 6.96783 15.9579 5.59432 14.9452 4.58162C13.9325 3.56893 12.559 3 11.1268 3C9.69467 3 8.32116 3.56893 7.30846 4.58162C6.29577 5.59432 5.72684 6.96783 5.72684 8.4C5.72684 11.1812 5.02524 13.0854 4.24154 14.3449C3.58054 15.4073 3.24994 15.9385 3.26204 16.0867C3.27544 16.2508 3.31024 16.3133 3.44244 16.4114C3.56184 16.5 4.10024 16.5 5.17684 16.5H17.0768C18.1535 16.5 18.6918 16.5 18.8112 16.4114C18.9434 16.3133 18.9782 16.2508 18.9916 16.0867C19.0037 15.9385 18.6732 15.4073 18.0121 14.3449C17.2284 13.0854 16.5268 11.1812 16.5268 8.4Z" fill="white" fill-opacity="0.01"/>
<path d="M8.74564 20.1C9.38024 20.6601 10.2138 21 11.1268 21C12.0398 21 12.8734 20.6601 13.5081 20.1M16.5268 8.4C16.5268 6.96783 15.9579 5.59432 14.9452 4.58162C13.9325 3.56893 12.559 3 11.1268 3C9.69467 3 8.32116 3.56893 7.30846 4.58162C6.29577 5.59432 5.72684 6.96783 5.72684 8.4C5.72684 11.1812 5.02524 13.0854 4.24154 14.3449C3.58054 15.4073 3.24994 15.9385 3.26204 16.0867C3.27544 16.2508 3.31024 16.3133 3.44244 16.4114C3.56184 16.5 4.10024 16.5 5.17684 16.5H17.0768C18.1535 16.5 18.6918 16.5 18.8112 16.4114C18.9434 16.3133 18.9782 16.2508 18.9916 16.0867C19.0037 15.9385 18.6732 15.4073 18.0121 14.3449C17.2284 13.0854 16.5268 11.1812 16.5268 8.4Z" stroke="#0B5D51" stroke-width="2" stroke-linecap="round" stroke-linejoin="round"/>
</g>
<defs>
<clipPath id="clip0_4_12485">
<rect width="24" height="24" fill="white"/>
</clipPath>
</defs>
</svg>
