<svg width="20" height="19" viewBox="0 0 20 19" fill="none" xmlns="http://www.w3.org/2000/svg">
<g clip-path="url(#clip0_2127_32)">
<path opacity="0.12" d="M13.5703 16.0601C15.0792 16.0601 15.8337 16.0601 16.3907 15.7887C16.88 15.5503 17.2669 15.1719 17.4902 14.7132C17.7444 14.1912 17.6817 13.5145 17.5565 12.1611L16.9732 5.86111C16.8653 4.69666 16.8114 4.11436 16.5249 3.67373C16.2726 3.28569 15.8969 2.97457 15.4462 2.78048C14.9345 2.56006 14.2853 2.56006 12.987 2.56006H7.01466C5.71633 2.56006 5.06716 2.56006 4.55541 2.78041C4.10476 2.97447 3.72906 3.2856 3.47674 3.67366C3.19024 4.11436 3.13633 4.69666 3.02849 5.86111L2.44516 12.1611C2.31983 13.5145 2.25716 14.1912 2.51141 14.7132C2.73474 15.1719 3.12169 15.5503 3.61099 15.7887C4.16783 16.0601 4.92233 16.0601 6.43133 16.0601H13.5703Z" fill="white"/>
<path d="M13.3342 6.31006C13.3342 6.70402 13.248 7.09413 13.0804 7.45811C12.9129 7.82209 12.6674 8.1528 12.3578 8.43136C12.0483 8.70996 11.6809 8.93097 11.2764 9.08175C10.872 9.23253 10.4386 9.31014 10.0008 9.31014C9.56308 9.31014 9.12962 9.23253 8.7252 9.08175C8.32079 8.93097 7.95333 8.70996 7.64383 8.43136C7.33429 8.15279 7.08876 7.82208 6.92124 7.4581C6.75372 7.09413 6.66749 6.70402 6.66749 6.31006M3.02849 5.86111L2.44516 12.1611C2.31983 13.5145 2.25716 14.1912 2.51141 14.7132C2.73474 15.1719 3.12169 15.5503 3.61099 15.7887C4.16783 16.0601 4.92233 16.0601 6.43133 16.0601H13.5703C15.0792 16.0601 15.8337 16.0601 16.3907 15.7887C16.88 15.5503 17.2669 15.1719 17.4902 14.7132C17.7444 14.1912 17.6817 13.5145 17.5565 12.1611L16.9732 5.86111C16.8653 4.69666 16.8114 4.11436 16.5249 3.67373C16.2726 3.28569 15.8969 2.97457 15.4462 2.78048C14.9345 2.56006 14.2853 2.56006 12.987 2.56006H7.01466C5.71633 2.56006 5.06716 2.56006 4.55541 2.78041C4.10476 2.97447 3.72906 3.2856 3.47674 3.67366C3.19024 4.11436 3.13633 4.69666 3.02849 5.86111Z" stroke="white" stroke-width="1.66667" stroke-linecap="round" stroke-linejoin="round"/>
</g>
<defs>
<clipPath id="clip0_2127_32">
<rect width="20" height="18" fill="white" transform="translate(0 0.310059)"/>
</clipPath>
</defs>
</svg>
