<svg width="20" height="20" viewBox="0 0 20 20" fill="none" xmlns="http://www.w3.org/2000/svg">
<g clip-path="url(#clip0_2127_41)">
<path d="M2 2.9834H3.0885C3.2935 2.9834 3.396 2.9834 3.4785 3.02086C3.55122 3.05392 3.61283 3.10708 3.656 3.17401C3.70492 3.24984 3.71942 3.35079 3.7485 3.55267L4.14275 6.29843M4.14275 6.29843L5.01942 12.7059C5.13058 13.519 5.18617 13.9256 5.38167 14.2315C5.55392 14.5012 5.80083 14.7156 6.09275 14.8491C6.424 15.0004 6.8365 15.0004 7.66167 15.0004H14.7932C15.5787 15.0004 15.9714 15.0004 16.2924 14.8598C16.5754 14.7359 16.8181 14.5361 16.9935 14.2828C17.1923 13.9956 17.2658 13.612 17.4128 12.8446L18.5158 7.0855C18.5676 6.81541 18.5934 6.6804 18.5559 6.57482C18.5231 6.4822 18.4582 6.40421 18.3728 6.35478C18.2757 6.29843 18.1375 6.29843 17.861 6.29843H4.14275ZM8.66667 18.7298C8.66667 19.1875 8.29358 19.5586 7.83333 19.5586C7.37308 19.5586 7 19.1875 7 18.7298C7 18.2721 7.37308 17.901 7.83333 17.901C8.29358 17.901 8.66667 18.2721 8.66667 18.7298ZM15.3333 18.7298C15.3333 19.1875 14.9602 19.5586 14.5 19.5586C14.0397 19.5586 13.6667 19.1875 13.6667 18.7298C13.6667 18.2721 14.0397 17.901 14.5 17.901C14.9602 17.901 15.3333 18.2721 15.3333 18.7298Z" stroke="white" stroke-width="1.66667" stroke-linecap="round" stroke-linejoin="round"/>
</g>
<defs>
<clipPath id="clip0_2127_41">
<rect width="20" height="19.8902" fill="white"/>
</clipPath>
</defs>
</svg>
