<svg width="24" height="25" viewBox="0 0 24 25" fill="none" xmlns="http://www.w3.org/2000/svg">
<g clip-path="url(#clip0_4_12454)">
<path d="M6.5 21.2002C4.567 21.2002 3 19.6332 3 17.7002C3 15.7672 4.567 14.2002 6.5 14.2002C8.433 14.2002 10 15.7672 10 17.7002C10 19.6332 8.433 21.2002 6.5 21.2002ZM17.5 10.2002C19.433 10.2002 21 8.6332 21 6.7002C21 4.7672 19.433 3.2002 17.5 3.2002C15.567 3.2002 14 4.7672 14 6.7002C14 8.6332 15.567 10.2002 17.5 10.2002Z" fill="white" fill-opacity="0.01"/>
<path d="M15.0505 9.2002H5.5C4.1193 9.2002 3 8.0809 3 6.7002C3 5.3195 4.1193 4.2002 5.5 4.2002H15.0505M8.9495 20.2002H18.5C19.8807 20.2002 21 19.0809 21 17.7002C21 16.3195 19.8807 15.2002 18.5 15.2002H8.9495M3 17.7002C3 19.6332 4.567 21.2002 6.5 21.2002C8.433 21.2002 10 19.6332 10 17.7002C10 15.7672 8.433 14.2002 6.5 14.2002C4.567 14.2002 3 15.7672 3 17.7002ZM21 6.7002C21 8.6332 19.433 10.2002 17.5 10.2002C15.567 10.2002 14 8.6332 14 6.7002C14 4.7672 15.567 3.2002 17.5 3.2002C19.433 3.2002 21 4.7672 21 6.7002Z" stroke="white" stroke-width="2" stroke-linecap="round" stroke-linejoin="round"/>
</g>
<defs>
<clipPath id="clip0_4_12454">
<rect width="24" height="24" fill="white" transform="translate(0 0.200195)"/>
</clipPath>
</defs>
</svg>
