<svg width="20" height="21" viewBox="0 0 20 21" fill="none" xmlns="http://www.w3.org/2000/svg">
<g clip-path="url(#clip0_2127_4)">
<path opacity="0.12" d="M2.5 6.66016C2.5 5.25999 2.5 4.55999 2.7725 4.02516C3.01218 3.55477 3.39462 3.17234 3.865 2.93266C4.39983 2.66016 5.09983 2.66016 6.5 2.66016H13.5C14.9002 2.66016 15.6002 2.66016 16.135 2.93266C16.6054 3.17232 16.9878 3.55476 17.2275 4.02516C17.5 4.55999 17.5 5.25999 17.5 6.66016V13.6602C17.5 15.0603 17.5 15.7603 17.2275 16.2952C16.9878 16.7656 16.6054 17.148 16.135 17.3877C15.6002 17.6602 14.9002 17.6602 13.5 17.6602H6.5C5.09983 17.6602 4.39983 17.6602 3.865 17.3877C3.39461 17.148 3.01217 16.7655 2.7725 16.2952C2.5 15.7603 2.5 15.0603 2.5 13.6602V6.66016Z" fill="white"/>
<path d="M6.66667 12.6602V14.3268M10 9.32682V14.3268M13.3333 5.99349V14.3268M6.5 17.6602H13.5C14.9002 17.6602 15.6002 17.6602 16.135 17.3877C16.6054 17.148 16.9878 16.7656 17.2275 16.2952C17.5 15.7603 17.5 15.0603 17.5 13.6602V6.66016C17.5 5.25999 17.5 4.55999 17.2275 4.02516C16.9878 3.55476 16.6054 3.17232 16.135 2.93266C15.6002 2.66016 14.9002 2.66016 13.5 2.66016H6.5C5.09983 2.66016 4.39983 2.66016 3.865 2.93266C3.39462 3.17234 3.01218 3.55477 2.7725 4.02516C2.5 4.55999 2.5 5.25999 2.5 6.66016V13.6602C2.5 15.0603 2.5 15.7603 2.7725 16.2952C3.01217 16.7655 3.39461 17.148 3.865 17.3877C4.39983 17.6602 5.09983 17.6602 6.5 17.6602Z" stroke="white" stroke-width="1.66667" stroke-linecap="round" stroke-linejoin="round"/>
</g>
<defs>
<clipPath id="clip0_2127_4">
<rect width="20" height="20" fill="white" transform="translate(0 0.160156)"/>
</clipPath>
</defs>
</svg>
