<svg width="260" height="185" viewBox="0 0 260 185" fill="none" xmlns="http://www.w3.org/2000/svg">
<g clip-path="url(#clip0_2_4041)">
<path d="M55.3264 29.2193C56.4454 26.3005 57.6074 23.2726 59.2416 20.3778C63.4162 13.5233 70.6897 10.4939 77.1513 12.2196C80.7591 13.1689 84.7229 16.5998 86.7053 19.53L103.321 43.138L114.536 46.1331C119.772 47.5315 123.671 51.3084 125.515 56.3052L114.746 71.6054L98.7298 75.8827C86.9424 79.0309 79.8991 90.6193 81.6228 104.167C81.9078 106.16 82.291 108.41 82.7556 110.838L58.7359 121.913C55.9736 123.256 51.42 124.427 47.7833 123.455C47.5477 123.399 47.3398 123.344 47.1322 123.288C40.547 121.53 36.0415 115.17 35.8594 107.173C35.8825 103.819 36.3852 100.804 36.8711 97.8899L36.8801 97.8356L37.3488 94.9279C38.6991 85.4511 50.7336 40.6856 54.3003 31.8716L55.3264 29.2193Z" fill="url(#paint0_linear_2_4041)"/>
<path d="M31.8201 35.1286C33.4426 33.6828 35.8588 33.8734 37.2229 35.5613C38.5676 37.2537 38.3453 39.8002 36.7241 41.2414C32.2117 45.2608 28.7261 51.3052 26.9051 58.27C25.0853 65.2304 25.1533 72.2555 27.1002 78.0485C27.8008 80.1274 26.7511 82.4467 24.7566 83.222C24.0129 83.5049 23.2194 83.5451 22.468 83.3387C21.2564 83.006 20.2893 82.067 19.8707 80.8298C17.4121 73.516 17.2836 64.7837 19.5171 56.2414C21.7506 47.6992 26.1226 40.2026 31.8201 35.1286Z" fill="url(#paint1_linear_2_4041)"/>
<path d="M22.6889 19.4826C24.3654 17.9948 26.8673 18.1606 28.2535 19.874C29.6255 21.5885 29.3731 24.189 27.692 25.6757C19.7579 32.6808 13.5901 43.1309 10.3298 55.0945C7.06822 67.0625 7.09541 79.1447 10.4043 89.1119C11.1028 91.2302 10.0001 93.602 7.93573 94.4111C7.16609 94.7067 6.35181 94.7559 5.57851 94.5521C4.33169 94.2238 3.3382 93.2732 2.92196 92.0156C-0.905507 80.5002 -0.975242 66.6776 2.72725 53.0917C6.42726 39.5147 13.5182 27.5736 22.6889 19.4826Z" fill="url(#paint2_linear_2_4041)"/>
<path d="M151.051 26.9214C155.235 25.7971 159.717 26.2517 163.825 28.1444C167.831 29.9896 171.48 33.1993 174.176 37.6478C176.426 41.6693 178.032 45.8858 179.613 50.0357L181.089 53.8745C183.472 59.7993 188.555 77.246 193.478 95.5039L194.046 97.6181L194.893 100.795L195.453 102.91C195.639 103.614 195.824 104.317 196.008 105.017L196.556 107.114C200.811 123.44 204.404 138.434 205.22 144.195L205.894 148.409C206.594 152.631 207.291 156.823 207.326 161.477C207.201 166.745 205.69 171.435 203.157 175.099C200.62 178.768 197.056 181.403 192.857 182.531C187.371 183.996 181.457 182.484 177.794 180.692L139.171 162.774L121.956 167.123C116.368 168.625 110.964 167.914 106.345 165.257C101.708 162.59 97.8725 157.981 95.3842 151.729C89.8365 138.477 83.8842 114.724 82.0492 101.821C81.255 95.5267 82.4577 89.7292 85.2028 85.1405C87.9437 80.5588 92.2229 77.1917 97.5497 75.7603L113.32 71.5221L138.638 36.566C139.942 34.6231 141.913 32.5007 144.164 30.7002C146.38 28.9285 148.8 27.5174 151.051 26.9214ZM225.879 35.2863C226.689 35.2296 227.525 35.5197 228.21 36.1534C240.576 47.5187 250.163 64.3415 255.178 83.5116C260.198 102.699 260.103 122.176 254.942 138.352C254.597 139.435 253.803 140.25 252.802 140.525C252.2 140.69 251.562 140.647 250.956 140.405C250.07 140.043 249.394 139.314 249.008 138.445C248.616 137.561 248.521 136.526 248.83 135.548C253.543 120.754 253.581 102.889 248.966 85.2446C244.35 67.6014 235.593 52.1459 224.288 41.7465C223.545 41.0618 223.126 40.1188 223.035 39.1563C222.943 38.197 223.175 37.2098 223.764 36.4423C224.311 35.7393 225.077 35.3424 225.879 35.2863ZM210.188 57.7161C210.969 57.6197 211.783 57.8266 212.469 58.3428C220.608 65.6583 226.662 76.1513 229.767 88.1435C232.879 100.16 232.701 112.405 229.303 122.614C228.937 123.705 228.109 124.535 227.065 124.825C226.434 125 225.764 124.964 225.14 124.725C224.255 124.377 223.584 123.674 223.207 122.831C222.823 121.972 222.741 120.964 223.059 120.01C226.007 111.151 226.109 100.477 223.384 89.953C220.753 79.7953 215.78 70.8894 209.281 64.7362C208.236 63.7911 207.623 62.7281 207.438 61.6824C207.258 60.6646 207.495 59.6759 208.1 58.9052C208.651 58.2187 209.4 57.8134 210.188 57.7161Z" fill="#FF749F" fill-opacity="0.35" stroke="url(#paint3_linear_2_4041)" stroke-width="2.24138"/>
<g opacity="0.5">
<g filter="url(#filter0_f_2_4041)">
<path d="M124.351 54.3301C125.401 57.1674 125.777 60.4036 125.34 63.8209C124.057 72.7582 119.904 89.1681 116.024 98.3449C112.317 107.568 104.388 112.057 95.8273 109.78L84.7365 106.829L82.0672 108.055C81.6075 105.662 81.2285 103.446 80.9467 101.482C79.2421 88.1354 86.2071 76.7189 97.8636 73.6173L113.702 69.4035L124.351 54.3301Z" fill="url(#paint4_linear_2_4041)"/>
</g>
</g>
</g>
<defs>
<filter id="filter0_f_2_4041" x="44.8293" y="18.468" width="116.552" height="127.759" filterUnits="userSpaceOnUse" color-interpolation-filters="sRGB">
<feFlood flood-opacity="0" result="BackgroundImageFix"/>
<feBlend mode="normal" in="SourceGraphic" in2="BackgroundImageFix" result="shape"/>
<feGaussianBlur stdDeviation="17.931" result="effect1_foregroundBlur_2_4041"/>
</filter>
<linearGradient id="paint0_linear_2_4041" x1="2677.29" y1="6137.09" x2="9749.42" y2="12617" gradientUnits="userSpaceOnUse">
<stop stop-color="#FF759F"/>
<stop offset="1" stop-color="#FF196E"/>
</linearGradient>
<linearGradient id="paint1_linear_2_4041" x1="1401.3" y1="3914.73" x2="6100.74" y2="8341.92" gradientUnits="userSpaceOnUse">
<stop stop-color="#FF759F"/>
<stop offset="1" stop-color="#FF196E"/>
</linearGradient>
<linearGradient id="paint2_linear_2_4041" x1="2016.38" y1="5561.94" x2="6764.86" y2="9853.9" gradientUnits="userSpaceOnUse">
<stop stop-color="#FF759F"/>
<stop offset="1" stop-color="#FF196E"/>
</linearGradient>
<linearGradient id="paint3_linear_2_4041" x1="2824.79" y1="3062.91" x2="11256.5" y2="14865.4" gradientUnits="userSpaceOnUse">
<stop stop-color="white" stop-opacity="0.25"/>
<stop offset="1" stop-color="white" stop-opacity="0"/>
</linearGradient>
<linearGradient id="paint4_linear_2_4041" x1="2062.53" y1="3117.01" x2="5076.6" y2="5057.38" gradientUnits="userSpaceOnUse">
<stop stop-color="#FF759F"/>
<stop offset="1" stop-color="#FF196E"/>
</linearGradient>
<clipPath id="clip0_2_4041">
<rect width="260" height="183.793" fill="white" transform="translate(0 0.537109)"/>
</clipPath>
</defs>
</svg>
